<svg height="512" viewBox="0 0 64 64" width="512" xmlns="http://www.w3.org/2000/svg"><g id="Layer_57" data-name="Layer 57"><path d="m54.57 12.38h-20.39a3.91 3.91 0 0 1 -2.71-1.09l-5.08-4.86a6.87 6.87 0 0 0 -4.79-1.93h-12.17a6.94 6.94 0 0 0 -6.93 6.93v11.57a1.5 1.5 0 0 0 1.5 1.5h56a1.5 1.5 0 0 0 1.5-1.5v-3.69a6.94 6.94 0 0 0 -6.93-6.93z" fill="#a4be7b"/><path d="m60 21.5h-56a1.5 1.5 0 0 0 -1.5 1.5v29.57a6.94 6.94 0 0 0 6.93 6.93h45.14a6.94 6.94 0 0 0 6.93-6.93v-29.57a1.5 1.5 0 0 0 -1.5-1.5z" fill="#5f8d4e"/></g></svg>